<?xml version="1.0" encoding="UTF-8"?>
<svg id="Layer_1" data-name="Layer 1" xmlns="http://www.w3.org/2000/svg" viewBox="0 0 1083.74 221.16">
  <g>
    <path d="M0,199.18V0H21.21V49.15H121.58c8.62,0,15.99,3.06,22.12,9.18,6.12,6.12,9.18,13.5,9.18,22.12v87.44c0,8.63-3.06,16-9.18,22.12-6.12,6.12-13.5,9.18-22.12,9.18H0Zm31.56-21.21H121.58c2.76,0,5.13-.99,7.11-2.97,1.98-1.98,2.97-4.35,2.97-7.11V80.45c0-2.76-.99-5.13-2.97-7.11-1.98-1.98-4.36-2.98-7.11-2.98H31.56c-2.76,0-5.17,.99-7.24,2.98-2.07,1.98-3.1,4.36-3.1,7.11v87.44c0,2.76,1.03,5.13,3.1,7.11,2.07,1.98,4.48,2.97,7.24,2.97Z"/>
    <path d="M203.32,199.18c-8.63,0-16-3.06-22.12-9.18-6.12-6.12-9.18-13.49-9.18-22.12V0h21.21V167.88c0,2.76,.99,5.13,2.98,7.11,1.98,1.98,4.35,2.97,7.11,2.97h25.35v21.21h-25.35Z"/>
    <path d="M278.6,199.18c-8.63,0-16-3.06-22.12-9.18-6.12-6.12-9.18-13.49-9.18-22.12V80.45c0-8.62,3.06-15.99,9.18-22.12,6.12-6.12,13.49-9.18,22.12-9.18h90.02c8.79,0,16.25,3.06,22.38,9.18,6.12,6.12,9.18,13.5,9.18,22.12v87.44c0,8.63-3.06,16-9.18,22.12-6.12,6.12-13.58,9.18-22.38,9.18h-90.02Zm0-21.21h90.02c2.76,0,5.13-.99,7.11-2.97s2.97-4.35,2.97-7.11V80.45c0-2.76-.99-5.13-2.97-7.11-1.98-1.98-4.36-2.98-7.11-2.98h-90.02c-2.76,0-5.13,.99-7.11,2.98-1.98,1.98-2.97,4.36-2.97,7.11v87.44c0,2.76,.99,5.13,2.97,7.11,1.98,1.98,4.35,2.97,7.11,2.97Z"/>
    <path d="M457.61,199.18c-8.63,0-16-3.06-22.12-9.18-6.12-6.12-9.18-13.49-9.18-22.12V80.45c0-8.62,3.06-15.99,9.18-22.12,6.12-6.12,13.49-9.18,22.12-9.18h121.06v21.21h-121.06c-2.76,0-5.13,.99-7.11,2.98-1.98,1.98-2.97,4.36-2.97,7.11v87.44c0,2.76,.99,5.13,2.97,7.11,1.98,1.98,4.35,2.97,7.11,2.97h121.58v21.21h-121.58Z"/>
    <path d="M601.69,199.18V0h21.21V113.56h41.39l58.98-64.41h27.94v.26l-68.03,74.76,67.78,74.76v.26h-27.68l-58.98-64.41h-41.39v64.41h-21.21Z"/>
    <path d="M962.15,199.18c-8.63,0-16-3.06-22.12-9.18-6.12-6.12-9.18-13.49-9.18-22.12V80.45c0-8.62,3.06-15.99,9.18-22.12,6.12-6.12,13.49-9.18,22.12-9.18h90.02c8.79,0,16.25,3.06,22.38,9.18,6.12,6.12,9.18,13.5,9.18,22.12v87.44c0,8.63-3.06,16-9.18,22.12-6.12,6.12-13.58,9.18-22.38,9.18h-90.02Zm0-21.21h90.02c2.76,0,5.13-.99,7.11-2.97s2.97-4.35,2.97-7.11V80.45c0-2.76-.99-5.13-2.97-7.11-1.98-1.98-4.36-2.98-7.11-2.98h-90.02c-2.76,0-5.13,.99-7.11,2.98-1.98,1.98-2.97,4.36-2.97,7.11v87.44c0,2.76,.99,5.13,2.97,7.11,1.98,1.98,4.35,2.97,7.11,2.97Z"/>
    <path d="M846.29,55.63v112.25c0,.33,.01,.65,.05,.97,.2,2.35,1.18,4.41,2.93,6.15,1.98,1.98,4.35,2.97,7.11,2.97h54.84v21.21h-54.84c-8.04,0-14.92-2.56-20.66-7.68-.54-.47-1.07-.97-1.59-1.5-5.81-5.89-8.82-12.94-9.03-21.15,.04-.32,.05-.64,.05-.97V55.63l-64.93,23.49v-21.21l64.93-49.79h0l10.57-8.13,10.64,8.13h0l64.86,49.79v21.21l-64.93-23.49Z"/>
  </g>
  <polyline points="298.61 199.18 288.74 221.16 278.86 199.18"/>
  <circle cx="291.7" cy="124.17" r="8.85"/>
  <circle cx="355.53" cy="124.17" r="8.85"/>
  <circle cx="324.21" cy="124.17" r="8.85"/>
</svg>